<?xml version="1.0" standalone="no"?>
<!DOCTYPE svg PUBLIC "-//W3C//DTD SVG 20010904//EN"
 "http://www.w3.org/TR/2001/REC-SVG-20010904/DTD/svg10.dtd">
<svg version="1.0" xmlns="http://www.w3.org/2000/svg"
 width="200.000000pt" height="200.000000pt" viewBox="0 0 200.000000 200.000000"
 preserveAspectRatio="xMidYMid meet">
<metadata>
Created by potrace 1.15, written by Peter Selinger 2001-2017
</metadata>
<g transform="translate(0.000000,200.000000) scale(0.100000,-0.100000)"
fill="#000000" stroke="none">
<path d="M100 1000 l0 -900 900 0 900 0 0 900 0 900 -900 0 -900 0 0 -900z
m1755 0 l0 -845 -852 -3 -853 -2 0 850 0 850 853 -2 852 -3 0 -845z"/>
<path d="M986 1413 c-19 -37 -82 -95 -121 -111 -17 -6 -93 -25 -170 -42 -246
-54 -316 -105 -323 -240 -3 -53 0 -75 16 -106 43 -84 128 -135 239 -142 81 -5
136 9 215 58 28 17 52 29 55 26 17 -17 -108 -138 -175 -169 l-47 -22 168 -3
c93 -1 241 -1 330 0 l162 3 -50 25 c-27 13 -69 42 -92 63 -42 39 -89 104 -81
112 2 3 28 -12 58 -32 97 -65 188 -79 299 -44 121 37 171 104 171 225 0 84
-20 121 -88 165 -63 40 -112 57 -257 87 -148 31 -195 53 -242 112 -20 26 -40
51 -44 56 -4 4 -14 -5 -23 -21z"/>
</g>
</svg>
